<svg width="39" height="26" viewBox="0 0 39 26" fill="none" xmlns="http://www.w3.org/2000/svg">
<g clip-path="url(#clip0_10_259)">
<path d="M1.85576 25.6402C1.33294 25.6402 0.812306 25.6402 0.291674 25.6402C0.0390474 25.6402 -0.0356423 25.6007 0.0148831 25.3287C0.375151 23.3544 0.720042 21.38 1.06933 19.4057C1.6273 16.2511 2.18674 13.0965 2.74765 9.94194C3.2983 6.8327 3.85042 3.72273 4.404 0.612035C4.42377 0.502349 4.44354 0.392663 4.45892 0.278589C4.48089 0.120641 4.55997 0.059217 4.73132 0.059217C5.85386 0.059217 6.9764 0.059217 8.09895 0.059217C8.34498 0.059217 8.30105 0.177678 8.27249 0.33782C7.82435 2.84159 7.38061 5.34901 6.94126 7.86009C6.35545 11.1375 5.76965 14.4142 5.18385 17.6902C4.72692 20.2539 4.27366 22.8198 3.82406 25.3879C3.78891 25.5876 3.70543 25.649 3.51212 25.6446C2.96732 25.6336 2.41594 25.6402 1.85576 25.6402Z" fill="#2E7CFD"/>
<path d="M32.2655 25.6402C31.7208 25.6402 31.1672 25.6402 30.6312 25.6402C30.4642 25.6402 30.3654 25.6402 30.4115 25.4055C30.9826 22.207 31.5472 19.0071 32.1052 15.8058C32.6632 12.6409 33.2219 9.47467 33.7813 6.30694C34.1284 4.33259 34.4799 2.35824 34.8204 0.383888C34.8621 0.142578 34.9456 0.0504419 35.2092 0.0548293C36.2505 0.0723791 37.2939 0.0701854 38.3374 0.0548293C38.6142 0.0548293 38.7042 0.0877351 38.6471 0.410212C37.8299 4.96292 37.0245 9.51709 36.2307 14.0727C35.5702 17.8064 34.9112 21.5394 34.2536 25.2717C34.2009 25.5744 34.0932 25.6775 33.7769 25.6556C33.2651 25.6161 32.7642 25.6402 32.2655 25.6402Z" fill="#2E7CFD"/>
<path d="M11.7544 12.8398H10.2562C9.83007 12.8398 9.83008 12.8398 9.90477 12.4274L10.7835 7.49374C11.203 5.11794 11.6424 2.73995 12.0488 0.361951C12.0905 0.118447 12.1674 0.0460545 12.4113 0.0482482C13.4657 0.0614106 14.5201 0.0636043 15.5746 0.0482482C15.8668 0.0482482 15.9173 0.144772 15.8712 0.401438C15.4772 2.59516 15.0876 4.78303 14.7025 6.96506C14.3708 8.83191 14.0325 10.6944 13.7095 12.5656C13.6722 12.785 13.6019 12.8508 13.3866 12.8442C12.8418 12.8311 12.3014 12.8398 11.7544 12.8398Z" fill="#2E7CFD"/>
<path d="M19.3309 12.8398C18.7751 12.8398 18.2193 12.8398 17.6635 12.8398C17.4878 12.8398 17.4439 12.8047 17.468 12.6095C18.0392 9.42276 18.6059 6.23601 19.1683 3.04926C19.3309 2.14325 19.5044 1.22847 19.656 0.32027C19.6911 0.100898 19.7724 0.0460546 19.9833 0.0482484C21.0597 0.0584857 22.1369 0.0584857 23.2147 0.0482484C23.4542 0.0482484 23.5245 0.100898 23.4784 0.35537C22.7534 4.39621 22.0358 8.43851 21.3255 12.4823C21.2794 12.7433 21.2025 12.8662 20.9016 12.8464C20.3809 12.8179 19.8581 12.8398 19.3309 12.8398Z" fill="#2E7CFD"/>
<path d="M24.6888 25.6271C24.133 25.6271 23.5773 25.6271 23.0237 25.6271C22.8457 25.6271 22.7908 25.5941 22.826 25.4077C23.3971 22.2209 23.9639 19.0342 24.5263 15.8474C24.6888 14.937 24.858 14.0266 25.0074 13.1141C25.0425 12.8947 25.1238 12.8398 25.3347 12.842C26.4125 12.8537 27.4897 12.8537 28.5661 12.842C28.8077 12.842 28.8758 12.8947 28.8297 13.1514C28.0975 17.1922 27.3798 21.2338 26.6769 25.2761C26.6308 25.5393 26.5561 25.6622 26.2529 25.6424C25.7345 25.6051 25.2116 25.6271 24.6888 25.6271Z" fill="#2E7CFD"/>
<path d="M27.6985 8.56647C27.1559 8.56647 26.6001 8.5555 26.0663 8.56647C25.8181 8.56647 25.7829 8.47434 25.8203 8.26593C26.0795 6.82246 26.3358 5.37899 26.5891 3.93552C26.8088 2.71362 27.0285 1.49172 27.2306 0.26762C27.2679 0.048248 27.3558 -1.38283e-05 27.5601 -1.38283e-05C28.6365 -1.38283e-05 29.7129 0.0153422 30.7915 -1.38283e-05C31.0749 -1.38283e-05 31.0969 0.0855414 31.0529 0.324657C30.6751 2.43502 30.306 4.54538 29.9326 6.65574C29.8359 7.19978 29.7129 7.7526 29.6492 8.29006C29.6162 8.52918 29.5152 8.57525 29.2977 8.56867C28.7771 8.5577 28.2323 8.56647 27.6985 8.56647Z" fill="#2E7CFD"/>
<path d="M9.44558 25.6402C8.90078 25.6402 8.3472 25.6402 7.81339 25.6402C7.61348 25.6402 7.56516 25.592 7.59371 25.3857C8.07554 22.724 8.54637 20.0587 9.00623 17.3896C9.04357 17.1703 9.11607 17.0671 9.37309 17.0715C10.4385 17.0891 11.5061 17.0869 12.5716 17.0715C12.8418 17.0715 12.8813 17.133 12.833 17.3962C12.3614 20.0404 11.8986 22.6853 11.4446 25.3309C11.4051 25.5503 11.3304 25.6556 11.0756 25.6446C10.544 25.6249 9.99257 25.6402 9.44558 25.6402Z" fill="#2E7CFD"/>
<path d="M18.5995 17.0803C19.1113 17.0803 19.621 17.0979 20.1372 17.0803C20.4338 17.065 20.4975 17.1505 20.4469 17.4313C20.1548 19.0305 19.8758 20.6298 19.5946 22.229C19.4101 23.271 19.2212 24.3152 19.0476 25.3616C19.0125 25.581 18.9422 25.6578 18.7071 25.6556C17.6307 25.6424 16.5543 25.6424 15.4779 25.6556C15.2143 25.6556 15.1813 25.57 15.2231 25.3375C15.6976 22.6714 16.1662 20.006 16.629 17.3414C16.6641 17.1395 16.7498 17.0825 16.9409 17.0847C17.4901 17.0847 18.0459 17.0803 18.5995 17.0803Z" fill="#2E7CFD"/>
</g>
<defs>
<clipPath id="clip0_10_259">
<rect width="39" height="26" fill="white"/>
</clipPath>
</defs>
</svg>
