<svg width="120" height="26" viewBox="0 0 120 26" fill="none" xmlns="http://www.w3.org/2000/svg">
<g clip-path="url(#clip0_10_285)">
<path d="M47.3945 7.41917V6.50877C47.3945 4.37209 48.6071 2.84526 50.738 2.84526C52.8688 2.84526 54.0815 4.38086 54.0815 6.60091V7.34897H48.7214V7.49595C48.7214 9.03155 49.51 10.0933 50.8303 10.0933C51.7727 10.0933 52.39 9.62386 52.6536 8.86703H53.9716C53.6619 10.2096 52.5899 11.2055 50.7973 11.2055C48.684 11.2143 47.3945 9.72477 47.3945 7.41917ZM52.7524 6.28501V6.26308C52.7524 4.97536 51.9572 3.95747 50.7446 3.95747C49.532 3.95747 48.7214 4.98194 48.7214 6.26308V6.28501H52.7524Z" fill="white" stroke="white" stroke-miterlimit="10"/>
<path d="M56.0894 2.97688H57.4074V3.97283H57.4777C57.7413 3.41562 58.4597 2.84526 59.5317 2.84526C60.7992 2.84526 61.5549 3.3542 61.8712 4.14833H61.9481C62.2556 3.45511 63.1124 2.84526 64.4348 2.84526C66.1483 2.84526 67.161 3.90263 67.161 5.56767V11.0783H65.843V5.83749C65.843 4.80425 65.2498 4.04084 64.0855 4.04084C62.9213 4.04084 62.2952 4.83496 62.2952 5.96254V11.0783H60.9771V5.96254C60.9771 4.72089 60.3181 4.04084 59.2197 4.04084C58.2224 4.04084 57.4426 4.72089 57.4426 5.94718V11.0783H56.1245L56.0894 2.97688Z" fill="white" stroke="white" stroke-miterlimit="10"/>
<path d="M70.8185 9.86298H70.779V11.0783H69.5049V0H70.8339V4.08691H70.8713C71.2886 3.38491 72.2311 2.85403 73.2569 2.85403C75.1505 2.85403 76.4774 4.1944 76.4774 6.63162V7.41917C76.4774 9.76426 75.1967 11.2143 73.2416 11.2143C72.0839 11.2143 71.2974 10.6966 70.8185 9.86298ZM75.1418 7.34897V6.7106C75.1418 4.95562 74.2938 4.01013 73.0812 4.01013C71.6665 4.01013 70.8185 4.95123 70.8185 6.7106V7.33361C70.8185 9.08859 71.6599 10.056 73.0812 10.056C74.3004 10.056 75.1418 9.08421 75.1418 7.34897Z" fill="white" stroke="white" stroke-miterlimit="10"/>
<path d="M78.2041 7.41917V6.50877C78.2041 4.37209 79.4167 2.84526 81.5476 2.84526C83.6784 2.84526 84.891 4.38086 84.891 6.60091V7.34897H79.5222V7.49595C79.5222 9.03155 80.3086 10.0933 81.6288 10.0933C82.5713 10.0933 83.1907 9.62386 83.4522 8.86703H84.7702C84.4627 10.2096 83.3884 11.2055 81.5959 11.2055C79.4826 11.2143 78.2041 9.72477 78.2041 7.41917ZM83.5642 6.28501V6.26308C83.5642 4.97536 82.769 3.95747 81.5564 3.95747C80.3437 3.95747 79.5222 4.98194 79.5222 6.26308V6.28501H83.5642Z" fill="white" stroke="white" stroke-miterlimit="10"/>
<path d="M92.1403 4.10226H92.1798V0H93.4979V11.0783H92.2238V9.86298H92.193C91.9581 10.2867 91.6096 10.6367 91.1867 10.8739C90.7638 11.111 90.2832 11.2258 89.7986 11.2055C87.6831 11.2055 86.5562 9.65677 86.5562 7.39504V6.66453C86.5562 4.45764 87.7534 2.85403 89.7986 2.85403C90.2646 2.83666 90.7269 2.94304 91.1382 3.16232C91.5496 3.38161 91.8954 3.70595 92.1403 4.10226ZM87.9006 6.7106V7.34897C87.9006 9.1544 88.7793 10.0494 90.016 10.0494C91.3758 10.0494 92.2128 9.07763 92.2128 7.35775V6.7106C92.2128 5.07408 91.3714 4.01013 90.0051 4.01013C88.7881 4.01013 87.9006 4.90516 87.9006 6.7106Z" fill="white" stroke="white" stroke-miterlimit="10"/>
<path d="M101.145 4.10226H101.184V0H102.513V11.0783H101.239V9.86298H101.208C100.973 10.2864 100.625 10.6361 100.202 10.8732C99.7789 11.1103 99.2984 11.2253 98.8139 11.2055C96.6963 11.2055 95.5693 9.65677 95.5693 7.39504V6.66453C95.5693 4.45764 96.7666 2.85403 98.8139 2.85403C99.2781 2.83862 99.7381 2.94594 100.147 3.16513C100.557 3.38432 100.901 3.70761 101.145 4.10226ZM96.905 6.7106V7.34897C96.905 9.1544 97.7947 10.0494 99.0226 10.0494C100.38 10.0494 101.219 9.07762 101.219 7.35775V6.7106C101.219 5.07408 100.376 4.01013 99.0095 4.01013C97.7947 4.01013 96.905 4.90516 96.905 6.7106Z" fill="white" stroke="white" stroke-miterlimit="10"/>
<path d="M104.565 7.41917V6.50877C104.565 4.37209 105.778 2.84526 107.911 2.84526C110.044 2.84526 111.254 4.38086 111.254 6.60091V7.34897H105.894V7.49595C105.894 9.03155 106.683 10.0933 108.003 10.0933C108.946 10.0933 109.563 9.62386 109.824 8.86703H111.142C110.833 10.2096 109.758 11.2055 107.968 11.2055C105.863 11.2143 104.565 9.72477 104.565 7.41917ZM109.925 6.28501V6.26308C109.925 4.97536 109.13 3.95747 107.917 3.95747C106.705 3.95747 105.894 4.98194 105.894 6.26308V6.28501H109.925Z" fill="white" stroke="white" stroke-miterlimit="10"/>
<path d="M118.523 4.10226H118.561V0H119.879V11.0783H118.624V9.86298H118.594C118.359 10.2865 118.01 10.6364 117.587 10.8735C117.164 11.1106 116.684 11.2256 116.199 11.2055C114.084 11.2055 112.955 9.65677 112.955 7.39504V6.66453C112.955 4.45764 114.152 2.85403 116.199 2.85403C116.662 2.83979 117.121 2.94767 117.529 3.16681C117.937 3.38595 118.28 3.7086 118.523 4.10226ZM114.281 6.7106V7.34897C114.281 9.1544 115.16 10.0494 116.399 10.0494C117.759 10.0494 118.596 9.07762 118.596 7.35775V6.7106C118.596 5.07408 117.752 4.01013 116.386 4.01013C115.171 4.01013 114.281 4.90516 114.281 6.7106Z" fill="white" stroke="white" stroke-miterlimit="10"/>
<path d="M50.3909 17.4116C52.2977 17.4116 53.2796 18.5084 53.2796 19.8422H52.0428C51.9967 19.2236 51.6035 18.4997 50.3447 18.4997C49.3782 18.4997 48.684 18.9231 48.684 19.726C48.684 20.6363 49.756 20.8228 50.683 20.9983C52.2054 21.2681 53.4861 21.6762 53.4861 23.2578C53.4861 24.8395 52.1812 25.7762 50.2744 25.7762C48.4907 25.7762 47.2473 24.9207 47.2473 23.4619H48.5478C48.6642 24.2033 49.2969 24.6882 50.3799 24.6882C51.6233 24.6882 52.1856 24.1024 52.1856 23.4158C52.1856 22.4988 51.2828 22.3189 50.147 22.0996C48.6335 21.7902 47.3901 21.3274 47.3901 19.862C47.3857 18.1531 48.8312 17.4116 50.3909 17.4116Z" fill="white" stroke="white" stroke-miterlimit="10"/>
<path d="M56.1199 14.744C56.3442 14.744 56.5593 14.833 56.718 14.9914C56.8766 15.1498 56.9657 15.3646 56.9657 15.5886C56.9657 15.8126 56.8766 16.0274 56.718 16.1858C56.5593 16.3442 56.3442 16.4332 56.1199 16.4332C55.8956 16.4332 55.6805 16.3442 55.5219 16.1858C55.3633 16.0274 55.2742 15.8126 55.2742 15.5886C55.2742 15.3646 55.3633 15.1498 55.5219 14.9914C55.6805 14.833 55.8956 14.744 56.1199 14.744ZM55.4609 17.5432H56.7899V25.66H55.4609V17.5432Z" fill="white" stroke="white" stroke-miterlimit="10"/>
<path d="M59.2878 14.5663H60.6059V25.649H59.2878V14.5663Z" fill="white" stroke="white" stroke-miterlimit="10"/>
<path d="M63.7669 14.744C63.9912 14.744 64.2063 14.833 64.3649 14.9914C64.5235 15.1498 64.6126 15.3646 64.6126 15.5886C64.6126 15.8126 64.5235 16.0274 64.3649 16.1858C64.2063 16.3442 63.9912 16.4332 63.7669 16.4332C63.5426 16.4332 63.3275 16.3442 63.1689 16.1858C63.0103 16.0274 62.9211 15.8126 62.9211 15.5886C62.9211 15.3646 63.0103 15.1498 63.1689 14.9914C63.3275 14.833 63.5426 14.744 63.7669 14.744ZM63.1079 17.5432H64.4369V25.66H63.1079V17.5432Z" fill="white" stroke="white" stroke-miterlimit="10"/>
<path d="M66.5613 21.1694C66.5613 18.9867 67.8112 17.4204 69.9289 17.4204C71.8049 17.4204 72.9473 18.662 73.0175 19.9036H71.7127C71.6153 19.5271 71.3955 19.1936 71.0878 18.9554C70.78 18.7171 70.4018 18.5877 70.0124 18.5874C68.6702 18.5874 67.8903 19.5812 67.8903 21.2199V21.9745C67.8903 23.5628 68.7229 24.607 70.0212 24.607C71.0317 24.607 71.627 24.0673 71.7786 23.4202H73.0834C72.8132 24.8088 71.794 25.7806 69.9333 25.7806C67.7783 25.7806 66.5657 24.1222 66.5657 21.9636L66.5613 21.1694Z" fill="white" stroke="white" stroke-miterlimit="10"/>
<path d="M81.5672 21.2221V21.946C81.5672 24.1397 80.37 25.7806 78.092 25.7806C75.8139 25.7806 74.6013 24.1441 74.6013 21.946V21.2221C74.6013 19.0547 75.8227 17.4116 78.092 17.4116C80.3612 17.4116 81.5672 19.0547 81.5672 21.2221ZM75.9304 21.2681V21.8999C75.9304 23.5518 76.6948 24.6311 78.092 24.6311C79.4891 24.6311 80.2404 23.5584 80.2404 21.8999V21.2681C80.2404 19.6097 79.4825 18.5457 78.092 18.5457C76.7014 18.5457 75.9304 19.6097 75.9304 21.2681Z" fill="white" stroke="white" stroke-miterlimit="10"/>
<path d="M83.6147 17.5432H84.9328V18.6159H84.9723C85.2733 18.0982 86.0224 17.4116 87.3426 17.4116C89.01 17.4116 90.2533 18.4755 90.2533 20.4499V25.649H88.9353V20.6736C88.9353 19.3091 88.1313 18.6159 86.9582 18.6159C85.5611 18.6159 84.9592 19.6031 84.9592 20.7131V25.649H83.6301L83.6147 17.5432Z" fill="white" stroke="white" stroke-miterlimit="10"/>
<path d="M1.85576 25.8377C1.33294 25.8377 0.812306 25.8377 0.291674 25.8377C0.0390474 25.8377 -0.0356423 25.7982 0.0148831 25.5262C0.375151 23.5518 0.720042 21.5775 1.06933 19.6031C1.6273 16.4485 2.18674 13.294 2.74765 10.1394C3.2983 7.03015 3.85042 3.92018 4.404 0.809482C4.42377 0.699796 4.44354 0.59011 4.45892 0.476037C4.48089 0.318089 4.55997 0.256664 4.73132 0.256664C5.85386 0.256664 6.9764 0.256664 8.09895 0.256664C8.34498 0.256664 8.30105 0.375125 8.27249 0.535267C7.82435 3.03904 7.38061 5.54646 6.94126 8.05754C6.35545 11.335 5.76965 14.6117 5.18385 17.8876C4.72692 20.4513 4.27366 23.0173 3.82406 25.5854C3.78891 25.785 3.70543 25.8464 3.51212 25.8421C2.96732 25.8311 2.41594 25.8377 1.85576 25.8377Z" fill="white"/>
<path d="M32.2655 25.8377C31.7208 25.8377 31.1672 25.8377 30.6312 25.8377C30.4642 25.8377 30.3654 25.8377 30.4115 25.6029C30.9826 22.4045 31.5472 19.2046 32.1052 16.0032C32.6632 12.8384 33.2219 9.67212 33.7813 6.50439C34.1284 4.53004 34.4799 2.55569 34.8204 0.581336C34.8621 0.340026 34.9456 0.24789 35.2092 0.252278C36.2505 0.269827 37.2939 0.267634 38.3374 0.252278C38.6142 0.252278 38.7042 0.285183 38.6471 0.607661C37.8299 5.16037 37.0245 9.71453 36.2307 14.2702C35.5702 18.0039 34.9112 21.7369 34.2536 25.4691C34.2009 25.7719 34.0932 25.875 33.7769 25.853C33.2651 25.8135 32.7642 25.8377 32.2655 25.8377Z" fill="white"/>
<path d="M11.7544 13.0373H10.2562C9.83007 13.0373 9.83008 13.0373 9.90477 12.6249L10.7835 7.69119C11.203 5.31539 11.6424 2.93739 12.0488 0.559398C12.0905 0.315895 12.1674 0.243502 12.4113 0.245696C13.4657 0.258858 14.5201 0.261052 15.5746 0.245696C15.8668 0.245696 15.9173 0.342219 15.8712 0.598885C15.4772 2.79261 15.0876 4.98048 14.7025 7.1625C14.3708 9.02936 14.0325 10.8918 13.7095 12.7631C13.6722 12.9824 13.6019 13.0483 13.3866 13.0417C12.8418 13.0285 12.3014 13.0373 11.7544 13.0373Z" fill="white"/>
<path d="M19.3309 13.0373C18.7751 13.0373 18.2193 13.0373 17.6635 13.0373C17.4878 13.0373 17.4439 13.0022 17.468 12.807C18.0392 9.62021 18.6059 6.43346 19.1683 3.24671C19.3309 2.3407 19.5044 1.42592 19.656 0.51772C19.6911 0.298348 19.7724 0.243505 19.9833 0.245699C21.0597 0.255936 22.1369 0.255936 23.2147 0.245699C23.4542 0.245699 23.5245 0.298348 23.4784 0.55282C22.7534 4.59366 22.0358 8.63596 21.3255 12.6797C21.2794 12.9408 21.2025 13.0636 20.9016 13.0439C20.3809 13.0154 19.8581 13.0373 19.3309 13.0373Z" fill="white"/>
<path d="M24.6888 25.8245C24.133 25.8245 23.5773 25.8245 23.0237 25.8245C22.8457 25.8245 22.7908 25.7916 22.826 25.6051C23.3971 22.4184 23.9639 19.2316 24.5263 16.0449C24.6888 15.1345 24.858 14.2241 25.0074 13.3115C25.0425 13.0921 25.1238 13.0373 25.3347 13.0395C26.4125 13.0512 27.4897 13.0512 28.5661 13.0395C28.8077 13.0395 28.8758 13.0921 28.8297 13.3488C28.0975 17.3896 27.3798 21.4312 26.6769 25.4735C26.6308 25.7368 26.5561 25.8596 26.2529 25.8399C25.7345 25.8026 25.2116 25.8245 24.6888 25.8245Z" fill="white"/>
<path d="M27.6985 8.76392C27.1559 8.76392 26.6001 8.75295 26.0663 8.76392C25.8181 8.76392 25.7829 8.67178 25.8203 8.46338C26.0795 7.01991 26.3358 5.57644 26.5891 4.13297C26.8088 2.91107 27.0285 1.68916 27.2306 0.465068C27.2679 0.245695 27.3558 0.197433 27.5601 0.197433C28.6365 0.197433 29.7129 0.21279 30.7915 0.197433C31.0749 0.197433 31.0969 0.282989 31.0529 0.522104C30.6751 2.63247 30.306 4.74283 29.9326 6.85319C29.8359 7.39723 29.7129 7.95005 29.6492 8.48751C29.6162 8.72663 29.5152 8.77269 29.2977 8.76611C28.7771 8.75515 28.2323 8.76392 27.6985 8.76392Z" fill="white"/>
<path d="M9.44558 25.8377C8.90078 25.8377 8.3472 25.8377 7.81339 25.8377C7.61348 25.8377 7.56516 25.7894 7.59371 25.5832C8.07554 22.9215 8.54637 20.2561 9.00623 17.5871C9.04357 17.3677 9.11607 17.2646 9.37309 17.269C10.4385 17.2865 11.5061 17.2843 12.5716 17.269C12.8418 17.269 12.8813 17.3304 12.833 17.5937C12.3614 20.2378 11.8986 22.8827 11.4446 25.5284C11.4051 25.7477 11.3304 25.853 11.0756 25.8421C10.544 25.8223 9.99257 25.8377 9.44558 25.8377Z" fill="white"/>
<path d="M18.5995 17.2778C19.1113 17.2778 19.621 17.2953 20.1372 17.2778C20.4338 17.2624 20.4975 17.348 20.4469 17.6288C20.1548 19.228 19.8758 20.8272 19.5946 22.4264C19.4101 23.4684 19.2212 24.5127 19.0476 25.5591C19.0125 25.7784 18.9422 25.8552 18.7071 25.853C17.6307 25.8399 16.5543 25.8399 15.4779 25.853C15.2143 25.853 15.1813 25.7675 15.2231 25.5349C15.6976 22.8688 16.1662 20.2035 16.629 17.5388C16.6641 17.337 16.7498 17.28 16.9409 17.2821C17.4901 17.2821 18.0459 17.2778 18.5995 17.2778Z" fill="white"/>
</g>
<defs>
<clipPath id="clip0_10_285">
<rect width="120" height="25.8559" fill="white"/>
</clipPath>
</defs>
</svg>
